<svg  xmlns="http://www.w3.org/2000/svg" xmlns:xlink="http://www.w3.org/1999/xlink" width="906" height="200" viewBox="0 0 930 224"><path transform="translate(0 100)" d="M83.2,-50.2Q83.2,-48 79.5,-45.6Q76,-40.5 71.8,-37Q74.4,-33.9 74.4,-31.5Q74.4,-27.9 70.5,-27.9Q68,-27.9 65.7,-28.4L58,-28.6Q57.3,-28.6 53.5,-28.1Q53.6,-19.5 52.9,-8.9L52.7,-3.3Q52.6,1 51.1,6.35Q49.6,11.7 48.2,12.8Q46.8,9.2 46.05,6.65Q45.3,4.1 44.6,-1.35Q43.9,-6.8 43.6,-15.9L44.4,-25.7Q38.7,-23.8 37.4,-23.8Q35.1,-23.8 34.8,-29.2Q34.8,-31.8 36.7,-32.5Q41,-34.2 44.5,-35.1L44.7,-49.8Q36.2,-46.5 34,-46.5Q30.7,-46.5 28.2,-46.6Q26.2,-46.6 25,-43.9Q27.7,-34.2 29.7,-28.8Q30.9,-24.9 30.9,-21.7Q30.6,-18 27.9,-18Q24.5,-18 21.9,-23.3Q16.9,-37.1 16.9,-46.1Q16.9,-48.2 18.6,-51.5Q19.2,-52.9 19.7,-53.9Q20.2,-54.9 20.6,-54.9Q21.4,-54.9 21.4,-53.3Q21.4,-49.1 23,-47Q24.1,-48.3 26.8,-50.7Q32.1,-54.6 45,-57.3L45,-64.4L44.7,-65.3L44.3,-68.8Q43.2,-71.6 42.25,-72.8Q41.3,-74 40.4,-74.6Q39.8,-75 39.6,-75.3Q39.4,-75.6 39.3,-76.3Q39,-78.5 45.4,-80.6Q47.2,-80.6 52.4,-77.4Q56.7,-74.4 56.8,-72.2Q56.7,-71 56.1,-69.3Q55.5,-67.6 54.1,-66.1L53.6,-58.7Q63.5,-59.7 70.5,-59.8Q73.9,-60.8 75.6,-60.8Q77.3,-60.8 80.5,-56.4Q83.2,-52.4 83.2,-50.2ZM56.8,-72.1L56.8,-72.2L56.8,-72.3L56.8,-72.1ZM69.5,-52Q67.1,-52.5 62.6,-52.5Q61.4,-52.5 57.7,-52L53.4,-51.4L53.1,-37.3Q55.4,-38 57.1,-38.8Q58.8,-39.6 61.5,-41.2Q67.9,-48.2 69.5,-52Z"></path><path transform="translate(100 100)" d="M48.8,-62Q52.9,-61.1 54.5,-61.1Q56.8,-61.1 58,-62.5Q59.2,-63.9 59.2,-66.7Q59.2,-71.4 56.7,-74Q51.9,-79 47,-79Q39.3,-77.7 39.3,-74.2Q39.3,-72.4 43.3,-70L45.6,-68.5Q41.7,-64 33.4,-60.2Q41.1,-60.2 48.8,-62ZM14.7,4.2Q18.8,5.4 21.5,5.4Q29.2,5.4 35.4,1.9Q44,-3.6 50.4,-12.3Q62.8,-3.4 74.9,7.6Q78.6,11.3 81.5,11.4Q85.5,11.4 85.5,5.7Q85.5,0.4 79.8,-7.3Q75,-13.4 55.1,-21.7Q58.1,-27.6 59.7,-32Q60.7,-34.8 60.7,-37.2Q60.7,-40.7 56.1,-43.3Q54.5,-44.6 54.5,-46.7Q60.9,-49 72.3,-51.2Q78.3,-52.3 78.3,-55.7Q78.3,-59.1 74.9,-60.7Q70.5,-62.8 68,-62.8Q66.6,-62.8 64.4,-59.3Q57.5,-55.8 41.6,-48.8Q40.6,-48.4 33,-45.1L26,-44.1Q24,-44.1 21.95,-43.1Q19.9,-42.1 19.5,-41.3Q19.3,-40.8 18.95,-40.05Q18.6,-39.3 18,-38.2Q17.8,-37.8 16.7,-35.4Q15.6,-33 15.6,-32.2Q15.6,-31.3 15.75,-31Q15.9,-30.7 16.3,-30.7Q16.7,-30.7 17.5,-31Q18.3,-31.3 19,-31.3Q20.5,-31.3 24.5,-33.25Q28.5,-35.2 31.7,-37.6Q41.9,-42.7 51.8,-46.1Q50.9,-44.9 50.9,-43.7Q50.9,-41.1 52.2,-35.4Q51,-31.8 47.3,-24.5Q42,-26.5 34,-28.3Q31.6,-29 28.6,-29Q27,-29 27,-27.6Q27,-26.6 29.5,-25.3Q39.2,-19.3 42.8,-17Q31.8,-0.1 14.8,3.2L14.7,4.2Z"></path><path transform="translate(200 100)" d="M28.9,-35.7L29.8,-42.4Q33.3,-41 33.9,-38.5L30,-30.6Q28.9,-33.4 28.9,-35.7ZM19.3,-69.8Q17.9,-69.8 17.9,-63.7Q17.9,-61.8 18.8,-54.1Q18.2,-40.8 16,-19.1Q15.5,-13.8 15.5,-11.7Q15.5,-6.6 17.4,-2.5Q19.5,1 21.6,1Q23.4,1 24.5,-1.9Q24.9,-3.5 24.9,-18.6Q26.2,-18.1 28.4,-18.1Q30.5,-18.1 37.5,-31.8Q39.6,-27.1 42.9,-27.1Q44.6,-27.1 44.9,-28.4Q45.4,-30.8 45.9,-34.4Q47.4,-37.8 48.5,-41.5Q52.2,-39.4 54.5,-37.1Q52.4,-32.4 49.9,-29.5Q48.6,-32.3 48.1,-35.6Q47.1,-30.4 46.5,-25.1Q44.8,-21.2 44.8,-20.2Q44.8,-19.3 45.5,-18.5Q46.4,-18 47.1,-18Q49.2,-18 52.1,-20.9Q56.4,-26.2 59,-31.6Q60.9,-29.1 62.2,-26.3Q58.2,-21.9 54.5,-19.6Q57.9,-19.6 63.8,-20.6Q66.5,-19.6 67.5,-19.6Q70.4,-19.6 70.4,-25Q70.4,-33.1 62.3,-39.5Q64.3,-43.8 66.5,-49.3Q69,-53.1 69,-54.8Q69,-55.5 67.5,-57.7Q64.4,-61 61.8,-61Q59.7,-61 58,-59.4Q55.4,-57.2 55.4,-56.4Q55.4,-55.7 59.1,-55.2Q58.4,-48.5 56.8,-42.7Q52.7,-44.4 49.5,-44.7L50.5,-48.6Q46.4,-42.1 42.8,-37.9L41.3,-40.5Q42.4,-43.4 43.5,-46.1Q47.3,-52.1 47.3,-53.1Q47.3,-55.8 46.3,-57.6Q45.3,-59.8 43.6,-60.5Q42.1,-61.2 40,-61.2Q37.1,-61.2 37.1,-59.5Q37.1,-58.2 39.6,-54.9Q38.7,-49.9 36.8,-44.9Q34.1,-46.2 31.8,-46.2Q28.7,-46.2 28.4,-44.7Q27.9,-42.9 27.2,-32.4L25.9,-26.1L24.7,-24.3Q26,-47.3 26,-52.5Q26,-56.3 24.3,-61.2Q25.9,-62 26.7,-62Q27.8,-62 30.5,-61.6Q33.1,-61.6 39.8,-63.7Q64.9,-67.8 71.6,-67.8Q71.6,-42.4 72.3,-8.5Q70.3,-7.5 66.7,-7.5Q57.9,-7.5 51.7,-12.7Q58.8,-1 69.7,5.3Q71.5,8.7 73.8,8.7Q75.9,8.7 77.9,6.6Q82.2,0.4 82.2,-13.2Q82.2,-15.2 80.9,-32.1Q80.9,-51.1 82.1,-60.7Q84.5,-64.7 84.5,-66.7Q84.5,-69.4 79.5,-74.2Q76.6,-76.7 75.2,-76.7Q74.5,-76.7 65.5,-74.1Q46.3,-71.6 28.6,-67.4Q26.8,-66.9 23,-63.5Q20.8,-65.2 20.4,-68.4Q20.2,-69.8 19.3,-69.8Z"></path><path transform="translate(300 100)" d="M41.8,-65.1Q46.2,-65.1 50.3,-65.5Q51.9,-64.7 53.3,-64.7Q56.4,-64.7 56.4,-68.4Q56.4,-72.1 53.6,-76.1Q49.6,-79.5 45.7,-79.5Q41.8,-79.1 39.7,-77.85Q37.6,-76.6 37.6,-74.9Q37.6,-74.1 38.2,-73.4Q38.8,-72.7 39.8,-72.3Q41.8,-71.6 44.1,-69.7Q41.1,-68.1 34.8,-65.7Q39.3,-65.1 41.8,-65.1ZM24.35,-61.85Q23.2,-64.4 21.9,-64.4Q20.7,-64.4 20.6,-62.2Q20.1,-58.7 18.1,-55.1Q14,-49.4 14,-44.2Q14.8,-35.9 19.3,-35.9Q23.5,-35.9 26,-50.7L32.2,-50.5Q36.5,-50.5 44,-53.6Q55.2,-58.5 69.8,-59.3Q63.7,-53.7 54,-50.3Q61.2,-48.3 67,-48.3Q71.5,-48.3 80.2,-52.8Q84.6,-52.9 84.6,-55.7Q84.6,-59 81.8,-61.9Q77.2,-66 74.6,-66Q73.2,-66 70.8,-65.3Q48.4,-64.1 26.3,-54.3Q25.5,-59.3 24.35,-61.85ZM63.5,-44.5Q60.5,-47.2 58,-47.2Q56.4,-47.2 53.9,-45.9Q44.1,-43.4 34.3,-38.6Q33.9,-40.5 33.3,-40.5Q31.3,-40.5 30.3,-35.5Q30.3,-34.4 32.7,-31.5Q34.4,-29.8 35.3,-29.8Q36,-29.8 37.1,-30.9Q41.2,-35.3 50.9,-40.9Q52.2,-41.5 54.1,-41.7L48.8,-34.9L47.2,-34.6Q45.1,-34.2 45.1,-29.6Q45.1,-28.4 45.7,-27.7Q46.3,-27 47.3,-27Q48.2,-25.5 48.3,-25Q36.9,-22.9 28.5,-18.3Q26.2,-16.6 26.2,-15.5Q26.2,-14.6 27.6,-14.6Q29.1,-14.6 31.6,-15.4Q37.5,-16.9 41.5,-17.75Q45.5,-18.6 48.8,-18.7Q48.8,-7.7 47.6,-4.9L43.9,-4.9Q35.2,-4.9 25.7,-13.5Q29.8,-0.1 43.3,7.1Q44,8 45.7,8.6Q47.4,9.2 48.5,9.2Q51.1,9.2 55.2,3.6Q56.7,0.4 57.05,-2.8Q57.4,-6 57.4,-10.9Q57.4,-12.3 57.05,-14.9Q56.7,-17.5 56.3,-19.1L74.5,-17.4Q75.9,-17.4 76.65,-18.4Q77.4,-19.4 77.4,-21Q77.4,-22.2 76.8,-23.4Q72,-28.8 69,-28.8Q67.7,-28.8 64.3,-26.9Q60.3,-26.7 54.4,-26.1Q52.5,-29.6 51.7,-30.7Q55.8,-33.9 60.4,-36.5Q64.7,-37.3 64.7,-40Q64.7,-41.5 64.4,-42.2L63.5,-44.5Z"></path><path transform="translate(400 100)" d="M44.4,-39.5Q44.4,-38.2 45.7,-38.2Q46.3,-38.2 48.1,-40Q51.8,-42.1 61.5,-43.6Q60.5,-16.1 60.5,-9.9Q60.5,-0.6 63.1,7.6Q70.9,-4.8 70.9,-15.8L70.9,-45.1L83,-46.4Q86.1,-46.7 86.1,-50Q86.1,-54.7 78,-55.7L71.9,-58.2L72.6,-63.7Q74,-67 74,-68.7Q74,-71.4 71.4,-73.4Q65.4,-77.7 62.9,-77.7Q57.6,-76.8 57.6,-74.2Q57.6,-72.5 61.5,-71.1Q61.8,-61.5 61.8,-52.1Q44.4,-46.3 44.4,-39.5ZM22.8,-57.6L30.3,-62.5Q29.5,-64.5 28.85,-65.3Q28.2,-66.1 27.1,-66.6Q23.4,-67.8 23.4,-69.7Q23.4,-72.3 28.7,-72.3Q34.2,-72.3 36,-70.6Q39.4,-67.8 39.4,-65.4Q39.4,-58.7 36,-58.7Q34.7,-58.7 33.5,-59L22.8,-57.6ZM71.5,-53.9L71.7,-56.3L73.8,-54.2L71.5,-53.9ZM31.6,-35.9Q28.2,-29 26.8,-14.9Q28.3,-16.9 31.5,-20.8Q35.4,-25.7 37.55,-28.75Q39.7,-31.8 41.5,-35.6Q40.6,-29.9 39.25,-25.55Q37.9,-21.2 35.3,-14.3Q33.1,-8.5 32.4,-6.4Q32.7,-1.4 28.9,-1.4Q25.5,-1.4 24,-3.3Q22.8,-5.2 22.2,-6.4Q21.6,-7.6 21,-9.4Q19.9,-12.4 19.9,-16.2Q19.9,-22.5 22.9,-32.1Q23.7,-34.5 24.2,-37.3Q24.7,-40.1 24.7,-42.2Q24.7,-43.5 24.45,-44Q24.2,-44.5 23.7,-44.5Q23.1,-44.5 20.6,-42.9Q19.7,-42.2 18,-41.2Q16.7,-40.3 16,-39.6Q15.4,-39.1 15,-38.9Q14.6,-38.7 13.8,-38.7Q11.7,-38.7 9.95,-39.95Q8.2,-41.2 8.2,-42.6Q8.2,-43.6 9,-44.1Q11.8,-45.3 13.5,-45.8Q17.8,-47.3 23.1,-50.1L25,-51.1Q26.3,-51.8 27.4,-51.9Q29.6,-51.9 33.6,-49.6Q36.9,-48 37.2,-45.3Q37.2,-44.6 36.55,-43.65Q35.9,-42.7 35.8,-42.5Q35.5,-42 35.2,-41.55Q34.9,-41.1 34.6,-40.6L32.8,-37.8L31.6,-35.9Z"></path><path transform="translate(500 100)" d="M64.1,-11.4Q65.7,-8 69.1,-3.7Q72.5,0.6 77.7,4.4Q78.3,7.8 81.2,7.8Q85.4,7.8 87.3,2.1Q89.1,-3.6 89.1,-7.1Q89.1,-9.8 88.6,-20.6L88.3,-26.6L87.8,-37Q87.8,-44.8 90.9,-59.8Q92.3,-64.3 92.3,-65.5Q92.3,-68.3 90.3,-70.9Q83.7,-78.2 81.3,-78.2Q80.6,-78.2 78.8,-77.3Q77.1,-76.3 77.1,-75.3Q77.1,-73.3 80.4,-70Q79.5,-61.6 79.5,-34Q79.5,-22.7 79.7,-10.3Q77.1,-10.1 76.3,-10.1Q72.6,-10.1 70.15,-11.7Q67.7,-13.3 64,-17Q60.9,-20.2 60.1,-20.8Q62.5,-14.8 64.1,-11.4ZM8.5,-48.1Q7.6,-48.2 7.1,-46.95Q6.6,-45.7 6.6,-44.7Q6.6,-43 9.6,-41.1Q14.1,-39 16.4,-39Q17.8,-39 19.45,-39.45Q21.1,-39.9 24.4,-41L27.9,-42.2L28.7,-36.3Q29.3,-30.5 30.1,-26.9Q25.7,-22.1 20.85,-18.4Q16,-14.7 13.3,-13.6Q11.8,-16.4 10.8,-19.3L10.1,-16.9Q9.8,-15.6 9.4,-14.2Q9,-12.8 8.6,-11.2Q7,-9.1 6.8,-7.7Q6.8,-6.2 8.3,-6.1Q8.6,-6.1 9.3,-5.95Q10,-5.8 10.8,-5.8Q12,-5.8 13.2,-6.2Q20,-8.5 25.7,-13.6L32.7,-19.9Q34.8,-13.8 36.25,-10.5Q37.7,-7.2 39.35,-5Q41,-2.8 43.8,-0.1Q50.5,6.5 55.9,6.5Q58.2,6.5 59.25,5.4Q60.3,4.3 60.3,1.9Q60.3,-0.3 59.4,-2.4Q57.6,-10.9 55.75,-15.65Q53.9,-20.4 50.4,-26.9Q51.3,-21.1 51.3,-19.3Q51.3,-17.7 51.2,-16.6Q51.1,-13.3 50.1,-6.8Q46.8,-9.3 44.95,-11.55Q43.1,-13.8 41.8,-16.55Q40.5,-19.3 38.1,-25.5Q41.9,-28.3 46.3,-33.1Q46.8,-33.5 47.8,-34.15Q48.8,-34.8 49.4,-35.55Q50,-36.3 50,-37.3Q50,-38.2 48.7,-39.6Q47.4,-41 46,-41.9Q43.4,-44.4 41.7,-44.4Q38,-43.1 37.8,-41.6Q37.8,-40.7 39.7,-38.8Q38.6,-36.9 35.8,-33.1Q34.7,-39.1 34.6,-44.5Q38.8,-46 45.7,-47.8Q52.9,-49.5 52.9,-53.6Q52.9,-55.8 49.3,-56.9Q47.3,-57.7 44.2,-58.7Q41.1,-59.7 39.5,-60.2L35.5,-61.5Q39.2,-57.6 41.2,-55.4L38.8,-54.8Q35.4,-54.1 33.7,-53.4Q33.5,-56.5 33.5,-61.5Q33.9,-64.1 33.9,-65.2Q33.9,-67 30.1,-70.3Q25.8,-74.3 23,-74.3Q19.8,-74.3 19.8,-72.2Q19.8,-70.6 23.7,-66.4Q24.6,-59.6 25.3,-56.1Q25.5,-54.8 25.7,-53.45Q25.9,-52.1 26.1,-50.6Q23.4,-49.5 21.25,-49.05Q19.1,-48.6 15.7,-48.1L10.7,-47.4Q8.9,-48.1 8.5,-48.1ZM40.7,-68.5Q44.2,-67.4 45.7,-66L44,-63.9L42.6,-62.1Q44.7,-62.1 49.4,-62.6Q50.2,-62.1 51.3,-62.1Q52.9,-62.1 52.9,-66Q52.9,-72.2 43.9,-73.2Q41.1,-73.2 39.7,-72.5Q38.4,-71.8 38.4,-70.2Q38.4,-68.6 40.7,-68.5ZM61.6,-59.6Q60.1,-59.6 60.1,-58Q60.1,-56.6 61.6,-55.8Q63,-52.4 63,-49.2Q63,-47.1 62,-38.2Q62,-35.8 64.4,-33.1Q66.2,-30.8 68.1,-30.8Q69.6,-30.8 70.4,-33.1Q71.1,-35.8 71.1,-43.1Q71.1,-45.2 71.8,-50.9Q73,-58.7 73.5,-70.3Q71.9,-62.5 68.8,-54.8Q63.3,-59.6 61.6,-59.6Z"></path><path transform="translate(0 200)" d="M9.4,-67.2Q6.1,-67.2 4.8,-65.9Q3.8,-64.8 3.8,-61.8Q3.8,-57.5 9.1,-57.5Q14.7,-57.5 19.1,-57.6L18.7,-14.5Q16.9,-11.9 16.9,-10.3Q16.9,-6.7 19.1,-2.6Q21.2,1 24.3,1Q27.4,1 28.3,-0Q30,-2.1 30.1,-5.4Q30.1,-47.2 29.7,-52.1Q29.2,-56.1 27.5,-58L40.6,-58.1Q43.9,-58.1 44.7,-59.8Q45.3,-60.9 45.3,-64Q45.3,-66.2 42.6,-68.2Q39.9,-70.5 37.6,-70.5Q36.3,-70.5 32.2,-67.8Q17.2,-67.2 9.4,-67.2Z"></path><path transform="translate(51 200)" d="M34,-32.1L34,-13Q32.3,-9.6 32.3,-7.6Q32.3,-4.5 34.5,-1.5Q36.4,1.1 39.5,1.1Q44.7,1.1 44.7,-5.4L44.7,-32.8Q44.7,-41.3 40.8,-46.7Q36.9,-51.9 31.2,-51.9Q25.5,-51.9 18.4,-45.8Q18.7,-55.4 19.3,-58.2Q20.2,-61.3 20.2,-62.8Q20.2,-66.3 16.2,-68.8Q12.7,-71 11.2,-71Q9.5,-71 7.7,-70Q6.1,-69.2 6.1,-67.9Q6.1,-66.1 8.4,-65.1L8.4,-12.5Q6.6,-9.3 6.6,-7.5Q6.6,-4.9 8.6,-1.4Q10,1 13.6,1Q18.8,1 18.8,-6L18.8,-33.2Q22.2,-41.8 27.7,-41.8Q34,-41.8 34,-32.1Z"></path><path transform="translate(102 200)" d="M33.3,-32.8L17.9,-32.4Q18.3,-37.5 20.2,-40.6Q22.9,-44.2 26.1,-44.2Q29.4,-44.2 31.4,-41.1Q33.3,-37.5 33.3,-32.8ZM13.7,-46.7Q5.4,-37.9 5.4,-24.3Q5.4,-14.5 11.9,-5.5Q18,0.9 26,0.9Q37.8,0.9 44.2,-10.8Q45.6,-14.3 45.6,-15.8Q45.6,-17.7 43.5,-17.7Q41.8,-17.7 40.6,-15.5Q35.2,-8.9 28.1,-8.9Q23.3,-8.9 19.7,-13.3Q17.4,-17 17.4,-23.6L38.7,-24.1Q42.2,-24.1 43.9,-26.3Q45,-27.8 45,-30.4Q45,-42.7 35.2,-49.6Q31.1,-52.3 26.1,-52.3Q19,-52.3 13.7,-46.7Z"></path><path transform="translate(153 200)" d=""></path><path transform="translate(183 200)" d="M17.4,-38.2L17.4,-58.3Q21,-60.6 25.7,-60.6Q29.6,-60.6 32.2,-57.9Q35.2,-54.9 35.2,-51.4Q35.2,-45.2 31.6,-42.1Q27.2,-38.7 17.4,-38.2ZM7.7,-61.8L7.7,-15.6Q5.3,-12.2 5.3,-8.8Q5.3,-5.9 7.8,-2.3Q10.1,0.9 13.4,0.9Q15.2,0.9 16.5,-1.1Q17.8,-3.2 17.8,-7.3L17.8,-29.7Q31.4,-29.9 38.4,-33.9Q47.3,-39.6 47.3,-51.1Q47.3,-61.2 36.4,-66.8Q32.3,-69 26.7,-69Q22.1,-69 15.5,-66.8Q12.5,-69.5 11.2,-69.5Q4.8,-69.5 4.8,-65.5Q4.8,-64.5 7.7,-61.8Z"></path><path transform="translate(234 200)" d="M22.6,-44.2Q22.6,-46.7 21.3,-48.1Q18.4,-51.8 15.9,-51.8Q13.7,-51.8 11.8,-51.1Q10.2,-50.4 10.2,-49Q10.2,-47.8 12.9,-44.7L12.9,-11.5Q11,-8.7 11,-7Q11,-3.8 13,-1.6Q14.8,0.6 18,0.6Q22.9,0.6 23.4,-5.8L23.4,-32.4Q26.7,-39.9 30.6,-39.9Q32.4,-39.9 33.5,-38.4Q34.6,-36.8 36.5,-36.8Q39.2,-36.8 41.4,-40.5Q43.1,-43.1 43.1,-46.9Q43.1,-48.7 41,-50.4Q38.7,-52.1 34.6,-52.1Q29.5,-52.1 22.6,-44.2Z"></path><path transform="translate(285 200)" d="M25.5,-6.9Q21.5,-6.9 19.3,-11.7Q17.1,-16.6 17.1,-25.6Q17.1,-34.6 19.3,-39.5Q21.5,-44.3 25.5,-44.3Q29.5,-44.3 31.7,-39.5Q33.9,-34.6 33.9,-25.6Q33.9,-16.6 31.7,-11.7Q29.5,-6.9 25.5,-6.9ZM5.6,-25.6Q5.6,-15.8 10,-8.6Q15.6,0.9 25.5,0.9Q35.4,0.9 41,-8.6Q45.4,-15.8 45.4,-25.6Q45.4,-35.4 41,-42.6Q35.3,-52.1 25.5,-52.1Q15.7,-52.1 10,-42.6Q5.6,-35.4 5.6,-25.6Z"></path><path transform="translate(336 200)" d="M21.6,-65.7Q21.6,-62 23.9,-60Q26.4,-57.8 29.5,-57.8Q32.6,-57.8 35,-60.2Q36.8,-62.5 36.8,-65.4Q36.8,-68.4 34.6,-70.7Q32.4,-72.9 29.3,-72.9Q25.7,-72.9 23.3,-70.2Q21.6,-68.2 21.6,-65.7ZM34.3,-22.1Q34.3,-31.7 34.5,-36.5Q34.9,-39.3 34.9,-43.4Q34.9,-46.3 30.6,-48.8Q27.3,-50.9 25.7,-50.9Q23.9,-50.9 22.3,-49.9Q20.2,-48.8 20.2,-47.5Q20.2,-45.5 23.8,-43.6L23.8,-0.4Q22.8,5.6 18.9,5.6Q15.7,5.6 15.7,2.4Q16.4,-0.2 16.4,-2.3Q16.4,-3.9 15.4,-5.1Q14.2,-6.6 12.1,-6.6Q10.2,-6.6 6.6,-4.8Q3.9,-3.2 3.9,-0Q3.9,5.2 8,9.2Q12.5,13.8 19.4,13.8Q33.5,13.8 34.5,-4.5Q34.3,-14.7 34.3,-22.1Z"></path><path transform="translate(387 200)" d="M33.3,-32.8L17.9,-32.4Q18.3,-37.5 20.2,-40.6Q22.9,-44.2 26.1,-44.2Q29.4,-44.2 31.4,-41.1Q33.3,-37.5 33.3,-32.8ZM13.7,-46.7Q5.4,-37.9 5.4,-24.3Q5.4,-14.5 11.9,-5.5Q18,0.9 26,0.9Q37.8,0.9 44.2,-10.8Q45.6,-14.3 45.6,-15.8Q45.6,-17.7 43.5,-17.7Q41.8,-17.7 40.6,-15.5Q35.2,-8.9 28.1,-8.9Q23.3,-8.9 19.7,-13.3Q17.4,-17 17.4,-23.6L38.7,-24.1Q42.2,-24.1 43.9,-26.3Q45,-27.8 45,-30.4Q45,-42.7 35.2,-49.6Q31.1,-52.3 26.1,-52.3Q19,-52.3 13.7,-46.7Z"></path><path transform="translate(438 200)" d="M7.3,-25.4Q7.3,-10.6 16.7,-2.6Q21.4,0.8 27.5,0.8Q35.5,0.8 41.7,-6.6Q46.7,-13.2 46.7,-17.6Q46.7,-19.8 44.7,-19.8Q43.4,-19.8 41.5,-17.4Q35.8,-9.2 29.4,-9.2Q25.3,-9.2 21.9,-12.9Q18.9,-16.8 18.9,-25.1Q18.9,-31.7 21.7,-39.4Q23.4,-43.5 27.5,-43.5Q31,-43.5 31.7,-40.2Q31.2,-38 31.2,-36.5Q31.2,-32.3 35.2,-32.3Q37.6,-32.3 40.4,-34.3Q43.6,-36.5 43.6,-38.6Q43.6,-42.1 40.9,-45.4Q36.1,-51.7 28.8,-51.7Q19.1,-51.7 13.8,-45.4Q7.3,-37.8 7.3,-25.4Z"></path><path transform="translate(489 200)" d="M17.1,-61.3L17.1,-49.1L10.2,-48.7Q7,-48.5 6.2,-47Q5.3,-45.4 5.3,-43.6Q5.3,-38.8 8.6,-38.8Q9.9,-38.8 17.1,-39.4L17.1,-12.8Q17.1,-7.5 20.9,-2.9Q24.7,1 30.7,1Q39.1,1 43.7,-4.4Q47.4,-8.5 47.4,-13.4Q47.4,-16.8 45.4,-17.9Q42.7,-19.6 39.6,-19.6Q37.4,-19.6 36.2,-18.1Q35.1,-16.6 35.1,-14.8Q35.1,-13.7 35.4,-10.6Q34.2,-7.8 31.3,-7.8Q26.8,-7.8 26.8,-14Q26.8,-27.8 27.1,-39.9L31.8,-39.9Q35.3,-39.5 38.1,-39.5Q41.8,-39.5 41.8,-44.8Q41.8,-47 39,-49.3Q36.7,-51.1 35.2,-51.1Q34,-51.1 32.3,-49.4L27.9,-49.3Q28.5,-55.6 29.1,-58Q29.1,-60 25.8,-63.7Q22.7,-66.9 20.8,-66.9Q19.3,-66.9 17.3,-66.3Q15.4,-65.7 15.4,-64Q15.4,-62.3 17.1,-61.3Z"></path><path transform="translate(540 200)" d=""></path><path transform="translate(570 200)" d="M21.3,-39.7L21.3,-58Q23.6,-57.6 25.6,-57.6Q28.9,-57.6 38.4,-58.4Q43.7,-59.3 43.7,-63.7Q43.7,-66.1 40.5,-68.5Q37.5,-70.7 34.8,-70.7Q32.9,-70.7 29.6,-67.6Q23.1,-66.9 17.2,-66.9Q14.5,-68.3 12.4,-68.3Q9.2,-68.3 9.2,-65.5Q9.2,-64.1 11.2,-60.4L11.2,-14.2Q9.7,-10 9.7,-7.5Q9.7,-5.9 11,-2.5Q12.5,1.3 16.6,1.3Q21.3,1.3 21.3,-5.2L21.3,-30.3Q23.9,-29.9 26,-29.9Q28.7,-29.9 37.8,-30.6Q42.7,-31.2 42.7,-35.5Q42.7,-38.1 39.4,-40.6Q37.2,-42.5 34.5,-42.5Q33,-42.5 29.9,-40.2Q25.7,-39.7 21.3,-39.7Z"></path><path transform="translate(621 200)" d="M25.5,-6.9Q21.5,-6.9 19.3,-11.7Q17.1,-16.6 17.1,-25.6Q17.1,-34.6 19.3,-39.5Q21.5,-44.3 25.5,-44.3Q29.5,-44.3 31.7,-39.5Q33.9,-34.6 33.9,-25.6Q33.9,-16.6 31.7,-11.7Q29.5,-6.9 25.5,-6.9ZM5.6,-25.6Q5.6,-15.8 10,-8.6Q15.6,0.9 25.5,0.9Q35.4,0.9 41,-8.6Q45.4,-15.8 45.4,-25.6Q45.4,-35.4 41,-42.6Q35.3,-52.1 25.5,-52.1Q15.7,-52.1 10,-42.6Q5.6,-35.4 5.6,-25.6Z"></path><path transform="translate(672 200)" d="M22.6,-44.2Q22.6,-46.7 21.3,-48.1Q18.4,-51.8 15.9,-51.8Q13.7,-51.8 11.8,-51.1Q10.2,-50.4 10.2,-49Q10.2,-47.8 12.9,-44.7L12.9,-11.5Q11,-8.7 11,-7Q11,-3.8 13,-1.6Q14.8,0.6 18,0.6Q22.9,0.6 23.4,-5.8L23.4,-32.4Q26.7,-39.9 30.6,-39.9Q32.4,-39.9 33.5,-38.4Q34.6,-36.8 36.5,-36.8Q39.2,-36.8 41.4,-40.5Q43.1,-43.1 43.1,-46.9Q43.1,-48.7 41,-50.4Q38.7,-52.1 34.6,-52.1Q29.5,-52.1 22.6,-44.2Z"></path><path transform="translate(723 200)" d=""></path><path transform="translate(753 200)" d="M8.6,-68.6Q6.1,-68.6 3.7,-66.6Q1,-64.4 1,-61.8Q1,-59.7 1.8,-55.7Q5.4,-33.7 10.1,-5.9Q10.9,0.9 14.2,0.9Q17.8,0.9 18.8,-4Q21.2,-17.9 24.3,-32.5Q26.7,-20.4 29.6,-3.7Q30.5,0.7 34.1,0.7Q37.6,0.7 38.9,-6.5Q42.4,-31.9 48.4,-54.3Q49.7,-58.9 49.7,-61.4Q49.7,-64.9 44.6,-68.2Q42.7,-69.4 41,-69.4Q39.6,-69.4 38.1,-68.1Q37.1,-67.1 37.1,-66Q37.1,-64.6 38.5,-63.1Q36.3,-42.1 33.4,-23.9Q29.2,-40.7 27.6,-49.8Q27,-54.7 24.1,-54.7Q21.1,-54.7 20.5,-49.6Q18.3,-36 15.8,-22.8Q12.5,-58 11.6,-65.1Q11,-68.6 8.6,-68.6Z"></path><path transform="translate(804 200)" d="M33.3,-32.8L17.9,-32.4Q18.3,-37.5 20.2,-40.6Q22.9,-44.2 26.1,-44.2Q29.4,-44.2 31.4,-41.1Q33.3,-37.5 33.3,-32.8ZM13.7,-46.7Q5.4,-37.9 5.4,-24.3Q5.4,-14.5 11.9,-5.5Q18,0.9 26,0.9Q37.8,0.9 44.2,-10.8Q45.6,-14.3 45.6,-15.8Q45.6,-17.7 43.5,-17.7Q41.8,-17.7 40.6,-15.5Q35.2,-8.9 28.1,-8.9Q23.3,-8.9 19.7,-13.3Q17.4,-17 17.4,-23.6L38.7,-24.1Q42.2,-24.1 43.9,-26.3Q45,-27.8 45,-30.4Q45,-42.7 35.2,-49.6Q31.1,-52.3 26.1,-52.3Q19,-52.3 13.7,-46.7Z"></path><path transform="translate(855 200)" d="M25.9,-8.2Q19.5,-8.2 19.5,-23.8Q19.5,-34.3 20.8,-38.4Q22.9,-43.1 26.9,-43.1Q29.5,-43.1 31.6,-39.6Q34.1,-34.7 34.2,-28.2Q34.2,-16.5 32.7,-13Q30.8,-8.3 25.9,-8.2ZM19.5,-49.6Q19.5,-52.5 20.2,-56.3Q21.1,-61.1 21.1,-62.9Q21.1,-65.2 16,-69.8Q14.1,-71.5 11.7,-71.5Q10.2,-71.5 8.3,-70.4Q6.8,-69.8 6.8,-68.3Q6.8,-66.5 9.4,-64.5L9.4,-12.8Q8,-9.4 8,-7.6Q8.1,-4.8 10.7,-0.1Q11.8,2.1 14.1,2.1Q18.1,2.1 19.1,-2.2Q22.6,1.4 28,1.4Q35.6,1.4 41.3,-6.8Q45.6,-13.4 45.6,-25.7Q45.6,-34.7 42.7,-41.2Q37.4,-51.6 27.4,-51.6Q22.8,-51.6 19.5,-49.6Z"></path></svg>