<svg  xmlns="http://www.w3.org/2000/svg" xmlns:xlink="http://www.w3.org/1999/xlink" width="931" height="300" viewBox="0 0 955 324"><path transform="translate(0 100)" d=""></path><path transform="translate(50 100)" d=""></path><path transform="translate(100 100)" d=""></path><path transform="translate(150 100)" d=""></path><path transform="translate(200 100)" d=""></path><path transform="translate(250 100)" d=""></path><path transform="translate(0 200)" d="M60.8398,-77.4414L61.6211,-58.9844L56.9336,-58.9844Q56.3477,-64.0625 55.5664,-65.625Q54.2969,-68.0664 52.0996,-69.2383Q49.9023,-70.4102 46.1914,-70.4102L38.3789,-70.4102L38.3789,-21.2891Q38.3789,-15.7227 39.2578,-14.6484Q40.625,-13.0859 43.9453,-13.0859L47.6562,-13.0859L47.6562,-8.30078L16.6992,-8.30078L16.6992,-13.0859L20.5078,-13.0859Q23.9258,-13.0859 25.1953,-15.0391Q26.0742,-16.2109 26.0742,-21.2891L26.0742,-70.4102L19.5312,-70.4102Q15.1367,-70.4102 13.4766,-69.8242Q11.4258,-69.043 9.81445,-66.748Q8.20312,-64.4531 7.8125,-58.9844L3.02734,-58.9844L4.00391,-77.4414L60.8398,-77.4414Z"></path><path transform="translate(64 200)" d="M19.6289,-80.6641L19.6289,-50.293Q22.6562,-53.6133 26.123,-55.4688Q29.5898,-57.3242 33.1055,-57.3242Q37.4023,-57.3242 40.5273,-54.9316Q43.6523,-52.5391 45.1172,-47.5586Q46.0938,-44.2383 46.0938,-35.7422L46.0938,-19.9219Q46.0938,-15.918 46.582,-14.6484Q46.9727,-13.8672 47.7539,-13.4277Q48.5352,-12.9883 52.7344,-12.9883L52.7344,-8.30078L27.832,-8.30078L27.832,-12.9883L30.3711,-12.9883Q32.9102,-12.9883 33.7402,-13.6719Q34.5703,-14.3555 34.9609,-15.625Q35.0586,-16.2109 35.0586,-19.9219L35.0586,-35.7422Q35.0586,-42.8711 34.4238,-44.7754Q33.7891,-46.6797 32.5195,-47.5586Q31.25,-48.4375 29.3945,-48.4375Q27.2461,-48.4375 24.9512,-47.3145Q22.6562,-46.1914 19.6289,-42.9688L19.6289,-19.9219Q19.6289,-15.625 19.9707,-14.8926Q20.3125,-14.1602 21.3379,-13.5742Q22.3633,-12.9883 26.8555,-12.9883L26.8555,-8.30078L1.75781,-8.30078L1.75781,-12.9883Q5.85938,-12.9883 7.12891,-13.7695Q7.71484,-14.0625 8.1543,-15.0391Q8.59375,-16.0156 8.59375,-19.9219L8.59375,-60.3516Q8.59375,-67.9688 8.30078,-69.3848Q8.00781,-70.8008 7.61719,-71.0938Q7.22656,-71.3867 6.54297,-71.3867Q5.76172,-71.3867 2.34375,-70.2148L0.585938,-74.5117L15.625,-80.6641L19.6289,-80.6641Z"></path><path transform="translate(117 200)" d="M13.5742,-36.2305Q13.5742,-28.3203 18.0664,-23.0469Q22.5586,-17.8711 28.418,-17.8711Q32.3242,-17.8711 35.2051,-19.9707Q38.0859,-22.0703 40.7227,-29.2969L44.6289,-26.7578Q43.3594,-18.75 38.0859,-12.8418Q32.8125,-6.93359 24.707,-6.93359Q16.0156,-6.93359 9.86328,-13.6719Q3.71094,-20.4102 3.71094,-31.543Q3.71094,-43.6523 10.0098,-50.4883Q16.3086,-57.3242 25.8789,-57.3242Q33.9844,-57.3242 39.2578,-51.9531Q44.5312,-46.582 44.5312,-36.2305L13.5742,-36.2305ZM13.7695,-41.9922L31.25,-41.9922Q31.1523,-44.4336 30.4688,-45.9961Q29.3945,-48.3398 27.3926,-49.6582Q25.3906,-50.9766 23.1445,-50.9766Q19.6289,-50.9766 16.8457,-48.1934Q14.0625,-45.4102 13.7695,-41.9922Z"></path><path transform="translate(164 200)" d=""></path><path transform="translate(203 200)" d="M23.4375,-38.9648L23.4375,-21.4844Q23.4375,-15.8203 24.4141,-14.7461Q25.8789,-13.0859 29.0039,-13.0859L33.0078,-13.0859L33.0078,-8.30078L1.66016,-8.30078L1.66016,-13.0859L5.66406,-13.0859Q9.08203,-13.0859 10.3516,-15.1367Q11.1328,-16.3086 11.1328,-21.4844L11.1328,-64.2578Q11.1328,-70.0195 10.2539,-71.0938Q8.69141,-72.7539 5.66406,-72.7539L1.66016,-72.7539L1.66016,-77.4414L27.4414,-77.4414Q36.6211,-77.4414 42.041,-75.5371Q47.4609,-73.6328 51.2695,-68.8965Q55.0781,-64.1602 55.0781,-57.7148Q55.0781,-49.0234 49.2676,-43.5059Q43.457,-37.9883 33.1055,-37.9883Q30.6641,-37.9883 27.832,-38.3301Q25,-38.6719 23.4375,-38.9648ZM23.4375,-44.7266Q24.8047,-44.5312 26.7578,-44.2871Q28.7109,-44.043 29.9805,-44.043Q34.4727,-44.043 37.7441,-47.5586Q41.0156,-51.0742 41.0156,-56.7383Q41.0156,-60.7422 39.4043,-64.0137Q37.793,-67.2852 34.9609,-68.9453Q32.1289,-70.6055 28.418,-70.6055Q26.0742,-70.6055 23.4375,-69.9219L23.4375,-44.7266Z"></path><path transform="translate(261 200)" d="M19.4336,-57.3242L19.4336,-51.4648Q22.6562,-57.3242 29.4922,-57.3242Q32.7148,-57.3242 34.9121,-55.2246Q37.1094,-53.125 37.1094,-50.3906Q37.1094,-47.9492 35.4004,-46.1914Q33.6914,-44.4336 31.3477,-44.4336Q29.1992,-44.4336 27.0508,-46.0938Q24.9023,-47.7539 24.4141,-47.7539Q24.1211,-47.7539 23.4375,-47.168Q21.4844,-45.4102 19.4336,-41.3086L19.4336,-20.2148Q19.4336,-16.7969 20.2148,-15.332Q20.6055,-14.3555 21.875,-13.6719Q23.1445,-12.9883 27.2461,-12.9883L27.2461,-8.30078L1.36719,-8.30078L1.36719,-12.9883Q5.85938,-12.9883 7.12891,-13.8672Q7.91016,-14.3555 8.30078,-15.5273Q8.39844,-16.1133 8.39844,-19.8242L8.39844,-37.207Q8.39844,-44.9219 8.1543,-46.0449Q7.91016,-47.168 7.4707,-47.5098Q7.03125,-47.8516 6.25,-47.8516Q5.07812,-47.8516 1.85547,-46.7773L0.585938,-51.2695L15.625,-57.3242L19.4336,-57.3242Z"></path><path transform="translate(298 200)" d="M26.4648,-57.3242Q37.3047,-57.3242 43.9453,-49.0234Q49.4141,-41.9922 49.4141,-33.0078Q49.4141,-26.6602 46.3867,-20.166Q43.3594,-13.6719 37.9395,-10.3027Q32.5195,-6.93359 25.8789,-6.93359Q15.0391,-6.93359 8.69141,-15.625Q3.32031,-22.7539 3.32031,-31.7383Q3.32031,-38.2812 6.5918,-44.6777Q9.86328,-51.0742 15.1855,-54.1992Q20.5078,-57.3242 26.4648,-57.3242ZM24.9023,-51.1719Q22.7539,-51.1719 20.5078,-49.9023Q18.2617,-48.6328 16.7969,-45.1172Q15.332,-41.6016 15.332,-35.8398Q15.332,-26.4648 18.9453,-19.9219Q22.5586,-13.3789 28.0273,-13.3789Q32.0312,-13.3789 34.7168,-16.7969Q37.4023,-20.2148 37.4023,-29.1992Q37.4023,-40.625 32.6172,-47.0703Q29.5898,-51.1719 24.9023,-51.1719Z"></path><path transform="translate(351 200)" d="M16.0156,-80.7617Q18.6523,-80.7617 20.5566,-78.8574Q22.4609,-76.9531 22.4609,-74.2188Q22.4609,-71.582 20.5566,-69.6777Q18.6523,-67.7734 16.0156,-67.7734Q13.3789,-67.7734 11.4746,-69.6777Q9.57031,-71.582 9.57031,-74.2188Q9.57031,-76.9531 11.4746,-78.8574Q13.3789,-80.7617 16.0156,-80.7617ZM21.6797,-57.3242L21.6797,-10.8398Q21.6797,1.17188 16.4062,7.22656Q11.1328,13.2812 2.63672,13.2812Q-2.34375,13.2812 -4.98047,11.2793Q-7.61719,9.27734 -7.61719,6.83594Q-7.61719,4.49219 -5.95703,2.88086Q-4.29688,1.26953 -2.14844,1.26953Q-0.488281,1.26953 1.07422,1.95312Q2.05078,2.44141 4.3457,4.44336Q6.64062,6.44531 7.61719,6.44531Q8.30078,6.44531 9.0332,5.85938Q9.76562,5.27344 10.2051,3.4668Q10.6445,1.66016 10.6445,-5.17578L10.6445,-37.0117Q10.6445,-44.3359 10.2539,-46.1914Q10.0586,-47.3633 9.7168,-47.6074Q9.375,-47.8516 8.59375,-47.8516Q7.51953,-47.8516 4.39453,-46.7773L2.73438,-51.1719L17.7734,-57.3242L21.6797,-57.3242Z"></path><path transform="translate(382 200)" d="M13.5742,-36.2305Q13.5742,-28.3203 18.0664,-23.0469Q22.5586,-17.8711 28.418,-17.8711Q32.3242,-17.8711 35.2051,-19.9707Q38.0859,-22.0703 40.7227,-29.2969L44.6289,-26.7578Q43.3594,-18.75 38.0859,-12.8418Q32.8125,-6.93359 24.707,-6.93359Q16.0156,-6.93359 9.86328,-13.6719Q3.71094,-20.4102 3.71094,-31.543Q3.71094,-43.6523 10.0098,-50.4883Q16.3086,-57.3242 25.8789,-57.3242Q33.9844,-57.3242 39.2578,-51.9531Q44.5312,-46.582 44.5312,-36.2305L13.5742,-36.2305ZM13.7695,-41.9922L31.25,-41.9922Q31.1523,-44.4336 30.4688,-45.9961Q29.3945,-48.3398 27.3926,-49.6582Q25.3906,-50.9766 23.1445,-50.9766Q19.6289,-50.9766 16.8457,-48.1934Q14.0625,-45.4102 13.7695,-41.9922Z"></path><path transform="translate(429 200)" d="M44.2383,-27.5391Q42.1875,-17.1875 36.5234,-12.0605Q30.8594,-6.93359 23.8281,-6.93359Q15.5273,-6.93359 9.47266,-13.7695Q3.41797,-20.6055 3.41797,-32.1289Q3.41797,-43.2617 10.1562,-50.293Q16.8945,-57.3242 26.2695,-57.3242Q33.3008,-57.3242 38.0371,-53.418Q42.7734,-49.5117 42.7734,-45.1172Q42.7734,-42.6758 41.1621,-41.0645Q39.5508,-39.4531 36.8164,-39.4531Q33.2031,-39.4531 31.25,-41.8945Q30.1758,-43.2617 29.9316,-46.0938Q29.6875,-48.9258 28.418,-50Q27.1484,-51.0742 24.6094,-51.0742Q20.4102,-51.0742 17.9688,-47.9492Q14.2578,-43.6523 14.2578,-36.3281Q14.2578,-28.7109 17.8711,-23.0957Q21.4844,-17.4805 27.3438,-17.4805Q31.543,-17.4805 34.9609,-20.4102Q37.5,-22.4609 40.5273,-29.4922L44.2383,-27.5391Z"></path><path transform="translate(476 200)" d="M19.043,-70.7031L19.043,-55.957L29.4922,-55.957L29.4922,-49.6094L19.043,-49.6094L19.043,-22.0703Q19.043,-18.2617 19.9219,-17.2363Q20.8008,-16.2109 22.0703,-16.2109Q23.2422,-16.2109 24.3652,-16.9434Q25.4883,-17.6758 26.5625,-20.1172L31.4453,-20.1172Q29.0039,-12.9883 25.4883,-10.3027Q21.9727,-7.61719 18.1641,-7.61719Q15.5273,-7.61719 12.9883,-9.0332Q10.4492,-10.4492 9.27734,-13.1836Q8.10547,-15.918 8.10547,-20.9961L8.10547,-49.6094L0.976562,-49.6094L0.976562,-53.7109Q4.39453,-55.0781 6.98242,-57.4707Q9.57031,-59.8633 11.7188,-63.1836Q12.793,-64.9414 15.1367,-70.7031L19.043,-70.7031Z"></path><path transform="translate(507 200)" d=""></path><path transform="translate(546 200)" d="M23.3398,-70.8984L23.3398,-47.8516L33.9844,-47.8516Q37.5,-47.8516 39.0625,-49.2676Q40.625,-50.6836 41.3086,-56.9336L45.8984,-56.9336L45.8984,-31.543L41.1133,-31.543Q41.1133,-36.5234 40.332,-37.9883Q39.5508,-39.4531 38.2324,-40.1367Q36.9141,-40.8203 33.9844,-40.8203L23.3398,-40.8203L23.3398,-21.4844Q23.3398,-16.7969 23.9258,-15.4297Q24.2188,-14.7461 25.293,-14.0625Q27.1484,-13.0859 29.1016,-13.0859L32.9102,-13.0859L32.9102,-8.30078L1.5625,-8.30078L1.5625,-13.0859L5.37109,-13.0859Q8.78906,-13.0859 10.1562,-14.8438Q11.0352,-16.0156 11.0352,-21.4844L11.0352,-64.2578Q11.0352,-69.043 10.5469,-70.4102Q10.2539,-71.1914 9.17969,-71.7773Q7.42188,-72.7539 5.37109,-72.7539L1.5625,-72.7539L1.5625,-77.4414L53.7109,-77.4414L54.4922,-59.9609L50.1953,-59.9609Q48.6328,-65.4297 47.168,-67.334Q45.7031,-69.2383 43.5547,-70.0684Q41.4062,-70.8984 36.5234,-70.8984L23.3398,-70.8984Z"></path><path transform="translate(605 200)" d="M26.4648,-57.3242Q37.3047,-57.3242 43.9453,-49.0234Q49.4141,-41.9922 49.4141,-33.0078Q49.4141,-26.6602 46.3867,-20.166Q43.3594,-13.6719 37.9395,-10.3027Q32.5195,-6.93359 25.8789,-6.93359Q15.0391,-6.93359 8.69141,-15.625Q3.32031,-22.7539 3.32031,-31.7383Q3.32031,-38.2812 6.5918,-44.6777Q9.86328,-51.0742 15.1855,-54.1992Q20.5078,-57.3242 26.4648,-57.3242ZM24.9023,-51.1719Q22.7539,-51.1719 20.5078,-49.9023Q18.2617,-48.6328 16.7969,-45.1172Q15.332,-41.6016 15.332,-35.8398Q15.332,-26.4648 18.9453,-19.9219Q22.5586,-13.3789 28.0273,-13.3789Q32.0312,-13.3789 34.7168,-16.7969Q37.4023,-20.2148 37.4023,-29.1992Q37.4023,-40.625 32.6172,-47.0703Q29.5898,-51.1719 24.9023,-51.1719Z"></path><path transform="translate(658 200)" d="M19.4336,-57.3242L19.4336,-51.4648Q22.6562,-57.3242 29.4922,-57.3242Q32.7148,-57.3242 34.9121,-55.2246Q37.1094,-53.125 37.1094,-50.3906Q37.1094,-47.9492 35.4004,-46.1914Q33.6914,-44.4336 31.3477,-44.4336Q29.1992,-44.4336 27.0508,-46.0938Q24.9023,-47.7539 24.4141,-47.7539Q24.1211,-47.7539 23.4375,-47.168Q21.4844,-45.4102 19.4336,-41.3086L19.4336,-20.2148Q19.4336,-16.7969 20.2148,-15.332Q20.6055,-14.3555 21.875,-13.6719Q23.1445,-12.9883 27.2461,-12.9883L27.2461,-8.30078L1.36719,-8.30078L1.36719,-12.9883Q5.85938,-12.9883 7.12891,-13.8672Q7.91016,-14.3555 8.30078,-15.5273Q8.39844,-16.1133 8.39844,-19.8242L8.39844,-37.207Q8.39844,-44.9219 8.1543,-46.0449Q7.91016,-47.168 7.4707,-47.5098Q7.03125,-47.8516 6.25,-47.8516Q5.07812,-47.8516 1.85547,-46.7773L0.585938,-51.2695L15.625,-57.3242L19.4336,-57.3242Z"></path><path transform="translate(695 200)" d=""></path><path transform="translate(734 200)" d="M96.4844,-77.4414L96.4844,-72.7539Q92.8711,-72.7539 91.6016,-72.0215Q90.332,-71.2891 89.0625,-69.1406Q88.1836,-67.4805 86.0352,-61.1328L67.2852,-6.83594L63.1836,-6.83594L49.2188,-46.1914L35.2539,-6.83594L31.3477,-6.83594L11.4258,-62.793Q9.17969,-68.8477 8.69141,-69.8242Q7.91016,-71.2891 6.5918,-72.0215Q5.27344,-72.7539 1.26953,-72.7539L1.26953,-77.4414L28.7109,-77.4414L28.7109,-72.7539L26.0742,-72.7539Q24.1211,-72.7539 23.1934,-71.9727Q22.2656,-71.1914 22.2656,-70.2148Q22.2656,-68.75 24.3164,-62.793L35.9375,-29.5898L45.4102,-56.7383L43.6523,-61.8164L42.0898,-66.3086Q41.1133,-68.5547 39.9414,-70.3125Q39.4531,-70.8984 38.6719,-71.4844Q37.6953,-72.168 36.6211,-72.5586Q36.0352,-72.7539 32.7148,-72.7539L32.7148,-77.4414L61.4258,-77.4414L61.4258,-72.7539L58.2031,-72.7539Q56.0547,-72.7539 55.2246,-71.9727Q54.3945,-71.1914 54.3945,-69.8242Q54.3945,-67.6758 56.543,-61.6211L67.8711,-29.5898L79.1016,-62.1094Q81.1523,-67.9688 81.1523,-70.0195Q81.1523,-70.7031 80.7129,-71.2891Q80.2734,-71.875 79.5898,-72.168Q77.9297,-72.7539 73.8281,-72.7539L73.8281,-77.4414L96.4844,-77.4414Z"></path><path transform="translate(831 200)" d="M13.5742,-36.2305Q13.5742,-28.3203 18.0664,-23.0469Q22.5586,-17.8711 28.418,-17.8711Q32.3242,-17.8711 35.2051,-19.9707Q38.0859,-22.0703 40.7227,-29.2969L44.6289,-26.7578Q43.3594,-18.75 38.0859,-12.8418Q32.8125,-6.93359 24.707,-6.93359Q16.0156,-6.93359 9.86328,-13.6719Q3.71094,-20.4102 3.71094,-31.543Q3.71094,-43.6523 10.0098,-50.4883Q16.3086,-57.3242 25.8789,-57.3242Q33.9844,-57.3242 39.2578,-51.9531Q44.5312,-46.582 44.5312,-36.2305L13.5742,-36.2305ZM13.7695,-41.9922L31.25,-41.9922Q31.1523,-44.4336 30.4688,-45.9961Q29.3945,-48.3398 27.3926,-49.6582Q25.3906,-50.9766 23.1445,-50.9766Q19.6289,-50.9766 16.8457,-48.1934Q14.0625,-45.4102 13.7695,-41.9922Z"></path><path transform="translate(878 200)" d="M18.8477,-51.2695Q23.1445,-57.3242 31.4453,-57.3242Q38.8672,-57.3242 44.4336,-50.9766Q50,-44.6289 50,-33.8867Q50,-21.2891 41.6016,-13.5742Q34.375,-6.93359 25.4883,-6.93359Q21.2891,-6.93359 17.0898,-8.39844Q12.8906,-9.86328 7.91016,-13.2812L7.91016,-60.4492Q7.91016,-67.8711 7.56836,-69.3359Q7.22656,-70.8008 6.83594,-71.0938Q6.44531,-71.3867 5.85938,-71.3867Q4.6875,-71.3867 1.5625,-70.2148L-0.195312,-74.5117L14.9414,-80.6641L18.8477,-80.6641L18.8477,-51.2695ZM18.8477,-43.0664L18.8477,-17.4805Q20.7031,-15.7227 23.0957,-14.5996Q25.4883,-13.4766 28.0273,-13.4766Q31.6406,-13.4766 35.1562,-17.8711Q38.6719,-22.2656 38.6719,-31.0547Q38.6719,-39.1602 35.2051,-43.3105Q31.7383,-47.4609 27.5391,-47.4609Q25.293,-47.4609 22.9492,-46.2891Q21.1914,-45.4102 18.8477,-43.0664Z"></path></svg>